<?xml version="1.0" encoding="iso-8859-1"?>
<!-- Uploaded to: SVG Repo, www.svgrepo.com, Generator: SVG Repo Mixer Tools -->
<svg height="800px" width="800px" version="1.1" id="Layer_1" xmlns="http://www.w3.org/2000/svg" xmlns:xlink="http://www.w3.org/1999/xlink" 
	 viewBox="0 0 512 512" xml:space="preserve">
<path style="fill:#F7D04A;" d="M465.999,4.488c-3.471-0.921-7.126,0.608-8.907,3.724L282.019,314.59H248.61
	c-4.373,0-7.918,3.544-7.918,7.918v88.676c0,4.374,3.545,7.918,7.918,7.918h38.004c3.013,0,5.764-1.709,7.098-4.411L471.065,55.763
	c0.538-1.091,0.819-2.291,0.819-3.507V12.14C471.885,8.551,469.469,5.409,465.999,4.488z"/>
<g>
	<path style="fill:#F3B41B;" d="M282.019,314.59H248.61c-4.373,0-7.918,3.544-7.918,7.918v88.676c0,4.374,3.545,7.918,7.918,7.918
		h38.004c3.013,0,5.764-1.709,7.098-4.411l38.998-78.923l-32.105-53.703L282.019,314.59z"/>
	<path style="fill:#F3B41B;" d="M471.065,55.763c0.538-1.091,0.819-2.291,0.819-3.507V12.14c0-3.589-2.415-6.731-5.885-7.653
		c-3.471-0.921-7.126,0.608-8.907,3.724l-42.436,74.262l29.272,28.208L471.065,55.763z"/>
</g>
<path style="fill:#EB6836;" d="M501.971,217.468c-4.373,0-7.918,3.544-7.918,7.918c0,13.097-10.655,23.753-23.753,23.753
	s-23.753-10.656-23.753-23.753s10.655-23.753,23.753-23.753c4.373,0,7.918-3.544,7.918-7.918v-23.753h10.029
	c4.373,0,7.918-3.544,7.918-7.918s-3.545-7.918-7.918-7.918h-10.029v-82.87c0-4.374-3.545-7.918-7.918-7.918
	s-7.918,3.544-7.918,7.918v82.87h-10.029c-4.373,0-7.918,3.544-7.918,7.918s3.545,7.918,7.918,7.918h10.029v16.632
	c-18.048,3.678-31.67,19.672-31.67,38.791c0,21.829,17.758,39.588,39.588,39.588s39.588-17.758,39.588-39.588
	C509.889,221.012,506.344,217.468,501.971,217.468z"/>
<path style="fill:#F7D04A;" d="M470.301,0c-21.829,0-39.588,17.758-39.588,39.588s17.758,39.588,39.588,39.588
	s39.588-17.758,39.588-39.588S492.13,0,470.301,0z"/>
<path style="fill:#F3B41B;" d="M470.301,18.474c-11.642,0-21.113,9.471-21.113,21.113s9.471,21.113,21.113,21.113
	c11.642,0,21.113-9.471,21.113-21.113S481.943,18.474,470.301,18.474z"/>
<path style="fill:#F7D04A;" d="M286.614,314.59h-76.536v-62.812c0-30.56-24.862-55.423-55.423-55.423h-63.34
	c-13.098,0-23.753,10.656-23.753,23.753V436.52c0,4.374,3.545,7.918,7.918,7.918h211.134c4.373,0,7.918-3.544,7.918-7.918V322.507
	C294.532,318.134,290.987,314.59,286.614,314.59z"/>
<path style="fill:#F3B41B;" d="M67.563,390.07v46.449c0,4.374,3.545,7.918,7.918,7.918h211.134c4.373,0,7.918-3.544,7.918-7.918
	V390.07H67.563z"/>
<path style="fill:#808080;" d="M154.656,221.691h-53.839c-4.373,0-7.918,3.544-7.918,7.918v92.899c0,4.374,3.545,7.918,7.918,7.918
	h76.008c4.373,0,7.918-3.544,7.918-7.918v-70.73C184.742,235.187,171.246,221.691,154.656,221.691z"/>
<g>
	<path style="fill:#F3B41B;" d="M261.278,353.65h-46.449c-4.373,0-7.918-3.544-7.918-7.918c0-4.374,3.545-7.918,7.918-7.918h46.449
		c4.373,0,7.918,3.544,7.918,7.918C269.196,350.106,265.651,353.65,261.278,353.65z"/>
	<path style="fill:#F3B41B;" d="M261.278,378.986h-46.449c-4.373,0-7.918-3.544-7.918-7.918s3.545-7.918,7.918-7.918h46.449
		c4.373,0,7.918,3.544,7.918,7.918S265.651,378.986,261.278,378.986z"/>
	<path style="fill:#F3B41B;" d="M126.153,353.65h-25.336c-4.373,0-7.918-3.544-7.918-7.918c0-4.374,3.545-7.918,7.918-7.918h25.336
		c4.373,0,7.918,3.544,7.918,7.918C134.07,350.106,130.525,353.65,126.153,353.65z"/>
</g>
<path style="fill:#666666;" d="M305.617,403.266H56.478c-29.978,0-54.367,24.389-54.367,54.367C2.111,487.611,26.5,512,56.478,512
	h249.138c29.978,0,54.367-24.389,54.367-54.367C359.984,427.655,335.594,403.266,305.617,403.266z"/>
<path style="fill:#E5E5E5;" d="M305.617,428.602H56.478c-16.008,0-29.031,13.024-29.031,29.031
	c0,16.007,13.023,29.031,29.031,29.031h249.138c16.008,0,29.031-13.024,29.031-29.031
	C334.647,441.626,321.625,428.602,305.617,428.602z"/>
<path style="fill:#CCCCCC;" d="M56.478,428.602c-16.008,0-29.031,13.024-29.031,29.031c0,16.007,13.023,29.031,29.031,29.031
	h136.221l-93.27-58.062H56.478z"/>
</svg>